<svg id="Layer_1" data-name="Layer 1" xmlns="http://www.w3.org/2000/svg" viewBox="0 0 2861.957 1312.996">
  <defs>
    <style>
      .cls-1 {
        fill: #fff;
      }

      .cls-2 {
        fill: #ffff2b;
      }
    </style>
  </defs>
  <title>LOGO-FINALEsqreklama</title>
  <rect class="cls-1" x="1079.368" width="13.157" height="1312.996"/>
  <g>
    <g>
      <rect class="cls-2" x="594.428" y="603.052" width="342.595" height="95.413" transform="translate(-680.858 522.417) rotate(-45.11)"/>
      <rect class="cls-2" x="961.633" y="619.514" width="340.921" height="95.413" transform="translate(-584.717 786.817) rotate(-45.11)"/>
      <rect class="cls-2" x="772.816" y="1123.524" width="337.573" height="94.018" transform="translate(-997.345 799.961) rotate(-45.11)"/>
      <rect class="cls-2" x="428.529" y="1122.987" width="342.595" height="95.413" transform="translate(-1098.025 557.874) rotate(-45.11)"/>
      <rect class="cls-2" x="901.103" y="475.679" width="95.413" height="366.03" transform="translate(-632.607 654.46) rotate(-45.11)"/>
      <rect class="cls-2" x="895.733" y="828.364" width="95.413" height="336.736" transform="translate(-873.673 750.122) rotate(-45.11)"/>
    </g>
    <rect class="cls-2" x="978.557" y="376.457" width="135.09" height="131.324" transform="translate(-451.364 657.648) rotate(-45)"/>
  </g>
  <g>
    <path class="cls-1" d="M1994.365,1147.483V995.33q0-29.048-14.525-42.347t-35.7-13.295a60.483,60.483,0,0,0-19.7,3.2,45.581,45.581,0,0,0-16.5,9.849,47.1,47.1,0,0,0-11.325,16.741,60.664,60.664,0,0,0-4.186,23.39v154.615h-50.226V995.33q0-29.048-14.525-42.347t-35.7-13.295q-21.177,0-36.437,13.541t-15.264,42.1v152.153h-50.226V897.833h49.24v25.113a84.428,84.428,0,0,1,30.283-20.928,94.9,94.9,0,0,1,36.192-7.14q47.271,0,70.906,36.438,30.029-36.435,78.292-36.438a103,103,0,0,1,35.453,5.909A77.842,77.842,0,0,1,2018,917.529a84.47,84.47,0,0,1,20.435,31.761,115.806,115.806,0,0,1,6.155,38.654v159.539Z" transform="translate(-445.135 -211.552)"/>
    <path class="cls-1" d="M2312.459,1078.3a93.943,93.943,0,0,1-23.636,42.593q-12.313,12.81-30.775,21.174t-44.07,8.37q-25.608,0-43.824-8.37a99.04,99.04,0,0,1-30.529-21.174,93.943,93.943,0,0,1-23.636-42.593q-5.908-23.878-5.908-55.889,0-31.506,5.908-55.4a94.018,94.018,0,0,1,23.636-42.593,99.29,99.29,0,0,1,30.529-21.174q18.211-8.367,43.824-8.371,25.6,0,44.07,8.371t30.775,21.174a94.018,94.018,0,0,1,23.636,42.593q5.908,23.89,5.908,55.4Q2318.367,1054.426,2312.459,1078.3Zm-47.271-94.788q-2.955-18.212-14.279-29.545-14.288-14.276-36.931-14.279-22.159,0-36.438,14.279-11.332,11.333-14.279,29.545a257.6,257.6,0,0,0,0,77.8q2.955,18.223,14.279,29.544,14.773,14.773,36.438,14.772,22.159,0,36.931-14.772,11.32-11.322,14.279-29.544a257.6,257.6,0,0,0,0-77.8Z" transform="translate(-445.135 -211.552)"/>
    <path class="cls-1" d="M2460.667,1147.483q-17.728,0-30.529-5.909a62.1,62.1,0,0,1-21.174-15.511,64.094,64.094,0,0,1-12.556-22.158,81.144,81.144,0,0,1-4.186-25.852V940.673h-28.56V902.265h28.56v-75.83h50.226v75.83H2490.7v38.408h-48.256v134.919q0,13.792,6.647,21.42t20.927,7.633H2490.7v42.839Z" transform="translate(-445.135 -211.552)"/>
    <path class="cls-1" d="M2553.236,848.593v-53.18h53.181v53.18Zm1.478,298.89V897.833h50.226v249.65Z" transform="translate(-445.135 -211.552)"/>
    <path class="cls-1" d="M2875.267,1078.3a93.943,93.943,0,0,1-23.636,42.593q-12.313,12.81-30.775,21.174t-44.07,8.37q-25.608,0-43.824-8.37a99.04,99.04,0,0,1-30.529-21.174A93.943,93.943,0,0,1,2678.8,1078.3q-5.908-23.878-5.908-55.889,0-31.506,5.908-55.4a94.018,94.018,0,0,1,23.636-42.593,99.29,99.29,0,0,1,30.529-21.174q18.211-8.367,43.824-8.371,25.6,0,44.07,8.371t30.775,21.174a94.018,94.018,0,0,1,23.636,42.593q5.908,23.89,5.908,55.4Q2881.175,1054.426,2875.267,1078.3ZM2828,983.513q-2.955-18.212-14.279-29.545-14.288-14.276-36.931-14.279-22.159,0-36.438,14.279-11.332,11.333-14.279,29.545a257.6,257.6,0,0,0,0,77.8q2.955,18.223,14.279,29.544,14.773,14.773,36.438,14.772,22.159,0,36.931-14.772,11.32-11.322,14.279-29.544a257.6,257.6,0,0,0,0-77.8Z" transform="translate(-445.135 -211.552)"/>
    <path class="cls-1" d="M3101.274,1147.483V995.33q0-29.048-14.525-42.347t-35.7-13.295q-21.177,0-36.437,13.541t-15.265,42.1v152.153h-50.226V897.833h49.24v25.113a79.312,79.312,0,0,1,30.283-21.174,101.507,101.507,0,0,1,70.906-.984,79.162,79.162,0,0,1,26.837,16.741q14.275,14.288,19.7,31.761a130.3,130.3,0,0,1,5.416,38.654v159.539Z" transform="translate(-445.135 -211.552)"/>
  </g>
  <g>
    <path class="cls-1" d="M1738.34,1288.533a50.014,50.014,0,0,1-.82,8.422,23.228,23.228,0,0,1-2.187,6.4,22.837,22.837,0,0,1-4.1,5.414,26.944,26.944,0,0,1-8.859,5.905,28.116,28.116,0,0,1-21.217,0,26.909,26.909,0,0,1-8.859-5.905,22.837,22.837,0,0,1-4.1-5.414,23.18,23.18,0,0,1-2.187-6.4,49.656,49.656,0,0,1-.82-8.422q-.11-4.811-.109-11.374t.109-11.319a49.37,49.37,0,0,1,.82-8.366,23.992,23.992,0,0,1,2.188-6.452,22.369,22.369,0,0,1,4.1-5.469,26.972,26.972,0,0,1,8.859-5.906,28.128,28.128,0,0,1,21.217,0,27.007,27.007,0,0,1,8.859,5.906,22.369,22.369,0,0,1,4.1,5.469,24.042,24.042,0,0,1,2.188,6.452,49.728,49.728,0,0,1,.82,8.366q.108,4.758.109,11.319T1738.34,1288.533Zm-5.96-22.037a53.262,53.262,0,0,0-.765-7.655,20.555,20.555,0,0,0-1.8-5.578,17.724,17.724,0,0,0-3.281-4.429,20.022,20.022,0,0,0-6.78-4.484,21.579,21.579,0,0,0-15.968,0,20.015,20.015,0,0,0-6.781,4.484,17.638,17.638,0,0,0-3.281,4.429,20.421,20.421,0,0,0-1.8,5.578,53.047,53.047,0,0,0-.766,7.655q-.164,4.43-.164,10.663t.164,10.663a53.047,53.047,0,0,0,.766,7.656,20.359,20.359,0,0,0,1.8,5.577,17.556,17.556,0,0,0,3.281,4.43,20,20,0,0,0,6.781,4.484,21.592,21.592,0,0,0,15.968,0,20.008,20.008,0,0,0,6.78-4.484,17.641,17.641,0,0,0,3.281-4.43,20.492,20.492,0,0,0,1.8-5.577,53.263,53.263,0,0,0,.765-7.656q.164-4.428.164-10.663T1732.38,1266.5Z" transform="translate(-445.135 -211.552)"/>
    <path class="cls-1" d="M1805.381,1316.094l-18.592-35.872h-21.437v35.872h-5.905v-77.868h29.638a27.711,27.711,0,0,1,8.8,1.366,20.6,20.6,0,0,1,7.108,3.992,18.043,18.043,0,0,1,4.7,6.563,22.5,22.5,0,0,1,1.7,8.968q0,8.751-4.867,14.163a22,22,0,0,1-13.069,6.835l18.812,35.981Zm-1.148-63.87a13.173,13.173,0,0,0-3.555-4.921,14.579,14.579,0,0,0-5.468-2.9,24.473,24.473,0,0,0-6.89-.93h-22.968v31.5h22.968a24.4,24.4,0,0,0,6.89-.929,14.565,14.565,0,0,0,5.468-2.9,13.169,13.169,0,0,0,3.555-4.922,20.1,20.1,0,0,0,0-14Z" transform="translate(-445.135 -211.552)"/>
    <path class="cls-1" d="M1884.4,1284.542a61.423,61.423,0,0,1-.765,8.968,43.419,43.419,0,0,1-2.242,8.476,19.575,19.575,0,0,1-4.484,7,22.855,22.855,0,0,1-8.421,5.3,31.915,31.915,0,0,1-11.046,1.8H1831.3v-77.868h26.139q12.357,0,19.467,7.108a20.342,20.342,0,0,1,4.484,6.671,37.619,37.619,0,0,1,2.242,7.711,50.684,50.684,0,0,1,.765,8.2q.054,4.211.055,8.147T1884.4,1284.542Zm-5.905-15.421a59.324,59.324,0,0,0-.547-7.218,31.883,31.883,0,0,0-1.7-6.781,16.338,16.338,0,0,0-3.5-5.632,17.428,17.428,0,0,0-7.71-4.758,32.181,32.181,0,0,0-9.022-1.258h-18.812v67.369h18.812a32.11,32.11,0,0,0,9.022-1.257,17.41,17.41,0,0,0,7.71-4.758,15.831,15.831,0,0,0,3.5-5.961,37.953,37.953,0,0,0,1.7-7.546,73.785,73.785,0,0,0,.547-7.983q.054-3.992.055-7.273T1878.492,1269.121Z" transform="translate(-445.135 -211.552)"/>
    <path class="cls-1" d="M1905.45,1316.094v-77.868h5.905v77.868Z" transform="translate(-445.135 -211.552)"/>
    <path class="cls-1" d="M1986.271,1316.094l-44.95-67.7v67.7h-5.905v-77.868h5.905l44.95,67.479v-67.479h5.905v77.868Z" transform="translate(-445.135 -211.552)"/>
    <path class="cls-1" d="M2062.061,1316.094l-6.78-18.92h-36.31l-6.781,18.92h-6.343l28.653-77.868h5.25l28.654,77.868Zm-24.936-69.994-16.295,45.824h32.591Z" transform="translate(-445.135 -211.552)"/>
    <path class="cls-1" d="M2132.929,1316.094l-44.95-67.7v67.7h-5.905v-77.868h5.905l44.95,67.479v-67.479h5.905v77.868Z" transform="translate(-445.135 -211.552)"/>
    <path class="cls-1" d="M2209.7,1303.462a25.244,25.244,0,0,1-5.741,7.163,24.823,24.823,0,0,1-7.875,4.539,28.229,28.229,0,0,1-9.569,1.586,27.5,27.5,0,0,1-10.608-2.078,26.9,26.9,0,0,1-8.858-5.905,22.826,22.826,0,0,1-4.1-5.414,23.18,23.18,0,0,1-2.187-6.4,49.756,49.756,0,0,1-.82-8.422q-.11-4.811-.109-11.374t.109-11.319a49.47,49.47,0,0,1,.82-8.366,23.992,23.992,0,0,1,2.188-6.452,22.359,22.359,0,0,1,4.1-5.469,26.965,26.965,0,0,1,8.858-5.906,27.536,27.536,0,0,1,10.608-2.077,28.536,28.536,0,0,1,9.679,1.586,24.217,24.217,0,0,1,7.82,4.538,25.764,25.764,0,0,1,5.687,7.164,31.893,31.893,0,0,1,3.281,9.46h-6.016a22.731,22.731,0,0,0-7.163-12.8,19.558,19.558,0,0,0-13.288-4.7,21.3,21.3,0,0,0-7.983,1.531,20.007,20.007,0,0,0-6.781,4.484,17.624,17.624,0,0,0-3.28,4.429,20.388,20.388,0,0,0-1.8,5.578,52.909,52.909,0,0,0-.766,7.655q-.164,4.43-.164,10.663t.164,10.663a52.909,52.909,0,0,0,.766,7.656,20.326,20.326,0,0,0,1.8,5.577,17.542,17.542,0,0,0,3.28,4.43,19.993,19.993,0,0,0,6.781,4.484,21.277,21.277,0,0,0,7.983,1.53,19.965,19.965,0,0,0,13.4-4.7,22.45,22.45,0,0,0,7.272-12.8h5.8A31.874,31.874,0,0,1,2209.7,1303.462Z" transform="translate(-445.135 -211.552)"/>
    <path class="cls-1" d="M2278.058,1316.094l-6.78-18.92h-36.31l-6.781,18.92h-6.343l28.653-77.868h5.25l28.654,77.868Zm-24.936-69.994-16.295,45.824h32.591Z" transform="translate(-445.135 -211.552)"/>
    <path class="cls-1" d="M2325.957,1316.094v-77.868H2373.2v5.249h-41.341v30.732h35.217v5.249h-35.217v31.388H2373.2v5.25Z" transform="translate(-445.135 -211.552)"/>
    <path class="cls-1" d="M2425.149,1243.475v32.044h35.217v5.25h-35.217v35.325h-5.905v-77.868h47.246v5.249Z" transform="translate(-445.135 -211.552)"/>
    <path class="cls-1" d="M2482.238,1316.094v-77.868h5.905v77.868Z" transform="translate(-445.135 -211.552)"/>
    <path class="cls-1" d="M2507.063,1316.094v-6.233l41.013-66.386H2508.7v-5.249h45.715v5.249l-41.34,67.369h41.34v5.25Z" transform="translate(-445.135 -211.552)"/>
    <path class="cls-1" d="M2573.337,1316.094v-77.868h5.905v77.868Z" transform="translate(-445.135 -211.552)"/>
    <path class="cls-1" d="M2653.5,1288.533a50.06,50.06,0,0,1-.82,8.422,23.244,23.244,0,0,1-2.187,6.4,22.826,22.826,0,0,1-4.1,5.414,26.942,26.942,0,0,1-8.858,5.905,28.116,28.116,0,0,1-21.217,0,26.9,26.9,0,0,1-8.858-5.905,22.826,22.826,0,0,1-4.1-5.414,23.18,23.18,0,0,1-2.187-6.4,49.756,49.756,0,0,1-.82-8.422q-.11-4.811-.109-11.374t.109-11.319a49.47,49.47,0,0,1,.82-8.366,23.992,23.992,0,0,1,2.188-6.452,22.359,22.359,0,0,1,4.1-5.469,26.965,26.965,0,0,1,8.858-5.906,28.128,28.128,0,0,1,21.217,0,27.005,27.005,0,0,1,8.858,5.906,22.359,22.359,0,0,1,4.1,5.469,24.059,24.059,0,0,1,2.188,6.452,49.775,49.775,0,0,1,.82,8.366q.107,4.758.109,11.319T2653.5,1288.533Zm-5.961-22.037a53.186,53.186,0,0,0-.766-7.655,20.522,20.522,0,0,0-1.8-5.578,17.719,17.719,0,0,0-3.28-4.429,20.026,20.026,0,0,0-6.781-4.484,21.577,21.577,0,0,0-15.967,0,20.007,20.007,0,0,0-6.781,4.484,17.624,17.624,0,0,0-3.28,4.429,20.388,20.388,0,0,0-1.8,5.578,52.909,52.909,0,0,0-.766,7.655q-.164,4.43-.164,10.663t.164,10.663a52.909,52.909,0,0,0,.766,7.656,20.326,20.326,0,0,0,1.8,5.577,17.542,17.542,0,0,0,3.28,4.43,19.993,19.993,0,0,0,6.781,4.484,21.59,21.59,0,0,0,15.967,0,20.012,20.012,0,0,0,6.781-4.484,17.636,17.636,0,0,0,3.28-4.43,20.459,20.459,0,0,0,1.8-5.577,53.186,53.186,0,0,0,.766-7.656q.164-4.428.164-10.663T2647.54,1266.5Z" transform="translate(-445.135 -211.552)"/>
    <path class="cls-1" d="M2692.764,1243.475v72.619h-5.905v-72.619h-23.186v-5.249h52.386v5.249Z" transform="translate(-445.135 -211.552)"/>
    <path class="cls-1" d="M2731.368,1316.094v-77.868h47.246v5.249h-41.341v30.732h35.217v5.249h-35.217v31.388h41.341v5.25Z" transform="translate(-445.135 -211.552)"/>
    <path class="cls-1" d="M2842.7,1316.094l-18.592-35.872h-21.437v35.872h-5.905v-77.868h29.638a27.711,27.711,0,0,1,8.8,1.366,20.6,20.6,0,0,1,7.108,3.992,18.043,18.043,0,0,1,4.7,6.563,22.5,22.5,0,0,1,1.7,8.968q0,8.751-4.867,14.163a22,22,0,0,1-13.069,6.835l18.812,35.981Zm-1.148-63.87A13.173,13.173,0,0,0,2838,1247.3a14.579,14.579,0,0,0-5.468-2.9,24.473,24.473,0,0,0-6.89-.93h-22.968v31.5h22.968a24.4,24.4,0,0,0,6.89-.929,14.565,14.565,0,0,0,5.468-2.9,13.169,13.169,0,0,0,3.555-4.922,20.1,20.1,0,0,0,0-14Z" transform="translate(-445.135 -211.552)"/>
    <path class="cls-1" d="M2914.446,1316.094l-6.78-18.92h-36.31l-6.781,18.92h-6.343l28.653-77.868h5.25l28.654,77.868Zm-24.936-69.994-16.295,45.824h32.591Z" transform="translate(-445.135 -211.552)"/>
    <path class="cls-1" d="M2984.713,1270.16a20.791,20.791,0,0,1-4.922,7.054,20.507,20.507,0,0,1-7.437,4.375,28.739,28.739,0,0,1-9.351,1.477h-22.64v33.028h-5.905v-77.868H2963a27.836,27.836,0,0,1,9.351,1.53,21.641,21.641,0,0,1,7.437,4.375,20.253,20.253,0,0,1,4.922,7,25.984,25.984,0,0,1,0,19.029Zm-5.469-17.116a14.734,14.734,0,0,0-3.772-5.358,15.484,15.484,0,0,0-5.742-3.172,24.76,24.76,0,0,0-7.382-1.039h-21.983v34.341h21.983a24.7,24.7,0,0,0,7.382-1.039,15.469,15.469,0,0,0,5.742-3.171,14.721,14.721,0,0,0,3.772-5.359,21.813,21.813,0,0,0,0-15.2Z" transform="translate(-445.135 -211.552)"/>
    <path class="cls-1" d="M3003.468,1316.094v-77.868h5.905v77.868Z" transform="translate(-445.135 -211.552)"/>
    <path class="cls-1" d="M3072.148,1310.945q-7,5.805-19.249,5.8a47.89,47.89,0,0,1-7.929-.6,31.93,31.93,0,0,1-6.671-1.859,29.008,29.008,0,0,1-5.906-3.227,41.459,41.459,0,0,1-5.413-4.593l4.155-4.156a40.356,40.356,0,0,0,5.086,4.375,26.022,26.022,0,0,0,5.085,2.844,23.274,23.274,0,0,0,5.523,1.53,42.833,42.833,0,0,0,6.4.438q9.294,0,14.655-4.21t5.359-11.866q0-7.109-4.266-10.937-1.094-.875-2.078-1.531a9.89,9.89,0,0,0-2.242-1.094,29.268,29.268,0,0,0-2.9-.82q-1.641-.382-4.047-.711l-9.077-1.422q-8.859-1.312-13.89-5.687-6.126-5.14-6.125-14.327,0-9.844,6.453-15.585t17.717-5.741a33.979,33.979,0,0,1,12.3,1.98,35.067,35.067,0,0,1,10.116,6.331l-3.827,3.828a44.2,44.2,0,0,0-3.719-2.953,21.779,21.779,0,0,0-4.047-2.242,25.494,25.494,0,0,0-4.921-1.477,32.018,32.018,0,0,0-6.234-.547q-8.53,0-13.288,4.327t-4.757,11.773q0,6.792,4.047,10.187a19.048,19.048,0,0,0,5.194,3.012,30.441,30.441,0,0,0,6.4,1.808l8.421,1.313q2.732.439,4.812.877a24.809,24.809,0,0,1,3.664,1.041,16.6,16.6,0,0,1,2.9,1.423,24.842,24.842,0,0,1,2.516,1.807,18.422,18.422,0,0,1,4.976,6.518,20.175,20.175,0,0,1,1.8,8.6Q3079.147,1305.141,3072.148,1310.945Z" transform="translate(-445.135 -211.552)"/>
    <path class="cls-1" d="M3097.63,1316.094v-77.868h47.246v5.249h-41.341v30.732h35.217v5.249h-35.217v31.388h41.341v5.25Zm7.765-86.4v-8.421h6.344v8.421Zm22.748,0v-8.421h6.344v8.421Z" transform="translate(-445.135 -211.552)"/>
  </g>
  <g>
    <path class="cls-1" d="M1694.859,479.431v-53.18h53.181v53.18Zm1.478,298.89V528.671h50.226v249.65Z" transform="translate(-445.135 -211.552)"/>
    <path class="cls-1" d="M1978.48,778.321V626.168q0-29.048-14.525-42.347t-35.7-13.295q-21.177,0-36.437,13.542t-15.265,42.1V778.321h-50.226V528.671h49.24v25.113a79.31,79.31,0,0,1,30.283-21.173,101.511,101.511,0,0,1,70.906-.985,79.163,79.163,0,0,1,26.837,16.742q14.275,14.287,19.7,31.76a130.3,130.3,0,0,1,5.416,38.654v159.54Z" transform="translate(-445.135 -211.552)"/>
  </g>
</svg>
