<svg id="图层_1" data-name="图层 1" xmlns="http://www.w3.org/2000/svg" viewBox="0 0 623.622 292.623">
  <defs>
    <style>
      .cls-1 {
        fill: #4e167c;
      }
    </style>
  </defs>
  <title>viber-seeklogo.com</title>
  <g id="_Group_" data-name="&lt;Group&gt;">
    <g>
      <path class="cls-1" d="M639.382,136.995c0,5.69.39,11.407-.117,17.046-.455,5.132-.182,10.342-1.507,15.383a6.015,6.015,0,0,0-.195,1.52c0,3.573-1.156,6.938-1.9,10.381-1.39,6.574-4.014,12.706-6.483,18.864-1,2.481-2.754,4.651-4.158,6.977a64.467,64.467,0,0,1-15.941,17.552,77.155,77.155,0,0,1-18.955,11.134c-2.365.922-4.586,2.183-6.951,3.066-2.819,1.039-5.73,1.845-8.614,2.7-3.56,1.065-7.107,2.144-10.692,3.105a46.273,46.273,0,0,1-9.12,2.014c-1.832.117-3.638.65-5.457.948-3.573.572-7.159,1.156-10.757,1.663-1.832.26-3.7.351-5.548.52-8.081.793-16.162,1.663-24.243,2.339-4.053.351-8.133.325-12.2.533-1.845.091-3.69.338-5.535.481-2.352.195-4.716.338-7.068.533-3.378.286-6.743.623-10.121.87-1.767.13-3.56.052-5.327.195-2.949.221-5.872.585-8.822.805-1.858.143-3.716.156-5.587.208-3.9.1-7.847-.2-11.667.39-5.665.87-11.329.39-16.968.728-5.4.325-10.8.688-16.2.961-3.222.169-6.431.26-9.653.3-5.509.091-11.043-.169-16.539.208-12.615.87-25.244.494-37.872.611-7.626.078-15.253.3-22.879.286-10.42-.013-20.878.286-31.272-.4-13.46-.9-26.946-.247-40.392-1.065-.585-.026-1.182.026-1.78-.013-4.976-.273-9.952-.6-14.928-.831-2.884-.13-5.768-.117-8.653-.156-2.962-.039-5.937.026-8.9-.1-2.611-.1-5.21-.481-7.821-.585-5.509-.208-11-.312-16.513-.455a3.851,3.851,0,0,0-3.287,1.52c-2.728,3.248-5.535,6.405-8.393,9.549-3.924,4.313-7.951,8.549-11.888,12.862-3.82,4.2-7.535,8.5-11.42,12.615-3.469,3.7-7.042,7.327-10.744,10.783a19.116,19.116,0,0,1-4.924,2.988c-4.807,2.235-8.977-1.741-8.964-5.976.039-10.082-.234-20.164-.364-30.245-.039-2.884-.052-5.782.013-8.653.065-2.365.338-4.729.377-7.094s-.442-2.715-2.793-2.975c-3.027-.338-6.041-.818-9.068-1.169-3.859-.442-7.73-.754-11.576-1.286-3.157-.442-6.288-1.1-9.432-1.689-2.053-.39-4.131-.779-6.171-1.247-4.352-1-8.744-1.91-13.044-3.144-11.3-3.248-22.177-7.431-31.675-14.655A73.194,73.194,0,0,1,28.925,205.7a82.362,82.362,0,0,1-5.7-12.057c-1.143-3.066-1.884-6.275-2.728-9.445-.831-3.092-1.585-6.2-2.378-9.3a3.826,3.826,0,0,1-.13-.481c-.364-3.534-.883-7.055-1.052-10.588a87.538,87.538,0,0,0-.832-11.368,30.739,30.739,0,0,1-.143-5.587c.026-10.186-.091-20.371.169-30.544.13-4.794,1.013-9.562,1.546-14.343a8.46,8.46,0,0,0,.169-1,15.752,15.752,0,0,1,.948-5.7,50.671,50.671,0,0,0,1.624-6.613,76.28,76.28,0,0,1,5.872-16.89c3.547-6.925,7.626-13.642,13.421-18.994A85.735,85.735,0,0,1,56.456,40.906a90.951,90.951,0,0,1,16.669-7.2c2.326-.728,4.625-1.585,7-2.144,2.442-.585,4.963-.857,7.444-1.3,3.079-.533,6.145-1.1,9.224-1.624,3.508-.6,7.016-1.169,10.524-1.741,1.832-.3,3.664-.611,5.509-.832,5.288-.663,10.576-1.26,15.85-1.91,4.872-.6,9.731-1.234,14.59-1.832,1.091-.13,2.209-.091,3.3-.195,2.52-.26,5.028-.559,7.548-.845.507-.052,1.013-.091,1.52-.13q10.991-.877,22-1.741c5.794-.455,11.615-.831,17.409-1.325,1.923-.169,3.82-.585,5.742-.87a16.049,16.049,0,0,1,1.754-.169c4.664-.182,9.315-.325,13.979-.507,5.5-.221,11.03-.182,16.487-.74,10.991-1.143,22.034-.351,33.013-1.156,8.3-.611,16.591-.455,24.893-.494,20.19-.1,40.392-.039,60.582-.026,5.69,0,11.394-.273,17.058.143,8.367.623,16.747.649,25.127.766,5.171.078,10.368-.169,15.5.325,7.7.728,15.422.208,23.087.792,7.029.533,14.031.87,21.06.922,1.754,0,3.495.455,5.262.585,5.639.455,11.3.779,16.942,1.273,6.158.546,12.29,1.221,18.436,1.845.845.078,1.689.13,2.533.195,5.223.4,10.446.728,15.655,1.26,4.2.429,8.354,1.169,12.537,1.715,3.6.481,7.21.87,10.809,1.351,1.507.195,3,.546,4.5.805,4.261.728,8.523,1.4,12.758,2.183,2.637.481,5.249,1.143,7.873,1.7,2.053.442,4.131.779,6.171,1.273,4.17,1.013,8.367,2,12.5,3.2,4.2,1.221,8.393,2.52,12.472,4.079,3.066,1.169,5.937,2.819,8.913,4.209A54.529,54.529,0,0,1,619.66,57.743c5.366,6.431,10.056,13.356,12.706,21.437,1.39,4.261,2.793,8.523,3.9,12.862a83.146,83.146,0,0,1,1.286,8.5c.195,1.325.39,2.65.6,3.988a14.312,14.312,0,0,1,.234,1.494c.338,4.976.806,9.952.948,14.941.169,5.34.039,10.692.039,16.032ZM138.968,231.07c0,.805.013,1.39,0,1.962q-.156,9.783-.3,19.579c-.026,1.611-.026,3.222-.026,4.833q-.019,19.975-.026,39.95c0,1.585.961,2.157,2.326,1.4a10,10,0,0,0,2.183-1.728c3.846-4.053,7.639-8.146,11.459-12.226,1.156-1.234,2.378-2.416,3.508-3.677,3.378-3.794,6.678-7.639,10.082-11.407,3.521-3.885,7.172-7.665,10.692-11.563q9.53-10.562,18.968-21.216a3.808,3.808,0,0,1,3.807-1.377,96.153,96.153,0,0,0,15.941,1.091c4.573-.026,9.159.182,13.733.325,4.989.169,9.965.4,14.954.572,3.651.13,7.288.208,10.926.286,13.551.286,27.088.6,40.639.845,5.262.091,10.524.013,15.785.039,8.133.065,16.292.507,24.412.13,9.653-.442,19.293.247,28.946-.676,6.977-.676,14.07-.13,21.112-.208,4.573-.052,9.146-.221,13.72-.4,3.547-.143,7.081-.468,10.627-.572,6.522-.182,13.057-.247,19.592-.39,2.2-.039,4.4-.039,6.6-.208,3.378-.247,6.73-.714,10.095-.909,6.249-.364,12.511-.585,18.761-.922,1.845-.1,3.677-.507,5.522-.611,7.185-.429,14.369-.792,21.541-1.2.936-.052,1.858-.143,2.78-.247,1.858-.195,3.7-.416,5.548-.585q7.834-.74,15.668-1.455c.078-.013.169-.013.247-.026,4.261-.65,8.536-1.26,12.8-1.949,5.652-.922,11.3-1.9,16.955-2.858.169-.026.325-.1.494-.13q3.917-.9,7.834-1.767a62.68,62.68,0,0,0,6.405-1.468c5.353-1.767,10.6-3.846,15.967-5.561a59.971,59.971,0,0,0,13.941-7.094A48.233,48.233,0,0,0,608.968,193.8c2.533-4.222,4.781-8.523,5.742-13.395.325-1.637.831-3.235,1.247-4.846.754-2.858,1.728-5.665,2.209-8.562.884-5.327,1.611-10.692,2.144-16.058.546-5.626.987-11.29,1.078-16.942.078-5.223-.364-10.459-.611-15.694a47.6,47.6,0,0,0-.455-7.094c-.974-4.872-2.235-9.692-3.4-14.538-.364-1.455-.936-2.871-1.208-4.352a37.735,37.735,0,0,0-3.69-10.64,48,48,0,0,0-18.812-19.488c-2.248-1.3-4.664-2.3-7.016-3.43a64.61,64.61,0,0,0-16.669-5.665c-1.806-.312-3.586-.857-5.366-1.312-2.936-.754-5.859-1.624-8.822-2.261-2.9-.611-5.9-.767-8.718-1.572a23.91,23.91,0,0,0-6.236-.922,9.918,9.918,0,0,1-1.234-.247c-1.4-.26-2.806-.52-4.209-.754-1.078-.182-2.17-.325-3.248-.481-1.26-.182-2.507-.4-3.768-.533-4.04-.429-8.081-.754-12.109-1.26-5.613-.7-11.2-1.624-16.812-2.261-4.7-.533-9.445-.611-14.135-1.208-4.872-.611-9.77-.091-14.655-.961-6.236-1.13-12.628-.039-18.955-1.1-4.378-.741-8.965-.273-13.46-.351-.767-.013-1.533,0-2.287-.065-3.183-.286-6.366-.844-9.562-.87-12.031-.1-24.048-.221-36.053-1.091-4.131-.3-8.289-.286-12.446-.364-4.989-.078-9.991-.078-14.993-.13-8.211-.1-16.435-.338-24.659-.312-12.966.013-25.945.182-38.911.312-7.457.065-14.915.169-22.385.26q-9.14.1-18.293.208c-.416,0-.845.026-1.26.065-3.794.286-7.574.754-11.355.857-7.782.208-15.551.182-23.321,1.013-5.613.611-11.316.208-16.968.974-5.444.728-10.952.195-16.448.987-5.236.741-10.627.364-15.928,1.156-4.417.663-8.925.766-13.395,1.1-2.611.195-5.249.247-7.847.585-4.43.572-8.822,1.546-13.33,1.507a15.055,15.055,0,0,0-2,.26c-1.936.234-3.859.455-5.794.663-4.118.455-8.237.883-12.342,1.338-.507.052-1,.234-1.494.312-.909.156-1.819.325-2.741.429-1.507.182-3.027.247-4.534.494-3.4.572-6.808,1.169-10.2,1.858-4.612.922-9.25,1.819-13.824,2.988a57.731,57.731,0,0,0-7.535,2.78A83.332,83.332,0,0,0,57.469,66.695,54.856,54.856,0,0,0,41.632,87.469C39.683,91.8,38.6,96.356,37.357,100.89A74.131,74.131,0,0,0,34.681,117.4q-.058,1.52-.156,3.04c-.234,3.872-.857,7.769-.637,11.615.286,4.716.3,9.445.624,14.161.442,6.431.845,12.862,1.884,19.2.728,4.469,2.2,8.809,3.17,13.252a39.779,39.779,0,0,0,3.417,9.172A60.073,60.073,0,0,0,69.1,214.726a97.531,97.531,0,0,0,21.242,8.029c1.793.468,3.586.909,5.392,1.312,2.7.6,5.4,1.221,8.12,1.7,3.573.637,7.159,1.169,10.744,1.741,4.755.741,9.51,1.494,14.278,2.2,3.248.481,6.522.883,10.095,1.364" transform="translate(-15.903 -14.041)"/>
      <path class="cls-1" d="M372.98,115.579a7.348,7.348,0,0,0,2.144-.585c6.587-4.742,14.018-6.145,21.879-5.249a32.472,32.472,0,0,1,13.6,4.443,34.746,34.746,0,0,1,9.783,8.8c2.715,3.664,5.379,7.405,6.886,11.771.65,1.9,1.013,3.885,1.559,5.82a27.345,27.345,0,0,1,1.078,8c-.052,4.144.13,8.3-.182,12.433a46.283,46.283,0,0,1-1.715,7.587c-1.429,5.716-4.69,10.446-8.38,14.863a35.939,35.939,0,0,1-15.006,10.965c-5.327,1.962-10.926,1.91-16.526,1.481a20.735,20.735,0,0,1-10.991-3.937,35.024,35.024,0,0,1-2.845-2.534c-1.1-1-1.832-1.013-2.793.078a17.068,17.068,0,0,0-1.351,1.832,9.715,9.715,0,0,1-8.627,4.378c-2.092-.039-4.157.182-6.21-.832a7.547,7.547,0,0,1-3.222-2.715,14.879,14.879,0,0,1-2.676-7.548c-.078-3.04-.39-6.067-.39-9.107q-.058-38.43-.013-76.848a24.287,24.287,0,0,1,1.663-9.926c.819-1.871,1.741-3.742,3.6-4.755a13.181,13.181,0,0,1,10.212-1.286c5.08,1.364,6.756,5.288,7.665,9.7,1.442,6.951.857,14.019.857,21.034v2.131m33.9,37.105a44.472,44.472,0,0,0-.039-4.508,32.35,32.35,0,0,0-.87-3.43,18.556,18.556,0,0,0-9.276-12.927c-5.015-2.936-10.069-2.858-15.149-.026-6.925,3.846-9.393,10.342-10.511,17.578a27.664,27.664,0,0,0,1.026,12.3,21.075,21.075,0,0,0,5.781,9.692,16.454,16.454,0,0,0,24.88-2.819c3.287-4.573,4.43-9.757,4.157-15.863" transform="translate(-15.903 -14.041)"/>
      <path id="_Path_" data-name="&lt;Path&gt;" class="cls-1" d="M261.454,155.052c.754-2.235,1.26-3.82,1.819-5.392,1.338-3.807,2.676-7.613,4.04-11.394,1.338-3.729,2.715-7.432,4.067-11.147,1.455-3.963,2.936-7.925,4.339-11.9,1.013-2.858,1.9-5.756,2.91-8.6.779-2.222,1.65-4.417,2.481-6.613,1.182-3.066,2.365-6.132,3.573-9.185.429-1.091.9-2.17,1.416-3.222a9.4,9.4,0,0,1,6.639-4.976c4.807-1.117,11.953.468,14.291,6.405a4.872,4.872,0,0,1,.442,1.442c.3,4.43.091,8.718-1.806,12.914-1.988,4.43-3.482,9.094-5.262,13.616-.87,2.209-1.949,4.313-2.819,6.509-1.793,4.534-3.495,9.094-5.262,13.629-.987,2.52-2.053,5-3.066,7.5-1.325,3.274-2.637,6.535-3.95,9.822-1.468,3.69-2.936,7.379-4.378,11.082-1.364,3.508-2.624,7.055-4.066,10.536-1.871,4.508-3.846,8.978-5.82,13.447-1.9,4.287-5.483,5.872-9.926,6.223a14.373,14.373,0,0,1-6.405-1.2c-2.118-.845-3.391-2.845-4.443-4.742a72.938,72.938,0,0,1-3.157-7.133c-1.065-2.572-2.079-5.158-3.118-7.756-1.364-3.43-2.715-6.86-4.106-10.29-1.416-3.521-2.871-7.029-4.3-10.549-.922-2.248-1.845-4.482-2.741-6.743-1.4-3.521-2.767-7.068-4.17-10.589-1.325-3.352-2.676-6.691-4.015-10.03-.948-2.352-1.91-4.69-2.845-7.042q-2.709-6.782-5.392-13.577a33.986,33.986,0,0,0-1.715-4.209c-1.975-3.521-1.78-7.418-.948-10.926.9-3.794,3.378-6.977,7.769-7.782a8.207,8.207,0,0,0,1.221-.364c4.183-1.559,10.043.065,12.213,4.937,1.923,4.313,3.664,8.718,5.392,13.122,2.325,5.937,4.586,11.9,6.834,17.864.819,2.2,1.468,4.456,2.274,6.652,1.442,3.962,2.949,7.9,4.391,11.862,1.312,3.625,2.572,7.276,3.859,10.913a38.877,38.877,0,0,0,1.559,4.274,14.917,14.917,0,0,0,2.183,2.611" transform="translate(-15.903 -14.041)"/>
      <path class="cls-1" d="M484.535,159.19H461.124c-.338,0-.676-.039-1.013-.013-1.546.1-2.248.922-1.663,2.338a19.767,19.767,0,0,0,2.78,5.067c2.43,2.936,5.132,5.639,8.965,6.782,4.235,1.26,8.445,2.235,12.94.948,2.728-.792,5.587-1.1,8.211-2.378,2.43-1.169,4.924-2.17,7.418-3.2,2.17-.883,4.209-2.1,6.73-2.027a9.011,9.011,0,0,1,8.588,8.64c.169,6.067-3.183,9.991-7.86,12.979a48.761,48.761,0,0,1-9.406,4.989,51.843,51.843,0,0,1-10.822,2.339c-3.521.442-7.107.325-10.653.442a34.165,34.165,0,0,1-14.85-2.663,51.662,51.662,0,0,1-10.537-6.509c-6.483-5.015-10.563-11.836-13.252-19.462-1.156-3.248-1.26-6.769-1.676-10.2-.533-4.573.039-9.094.533-13.577a34.769,34.769,0,0,1,3.911-11.953,43.684,43.684,0,0,1,15.9-17.1,34.806,34.806,0,0,1,11.043-4.131,43.058,43.058,0,0,1,11.082-1.1,54.22,54.22,0,0,1,11.433,2.014,31.959,31.959,0,0,1,13.356,7.405,36.607,36.607,0,0,1,9.9,12.992,43.245,43.245,0,0,1,4.092,18.929,11.708,11.708,0,0,1-1.507,5.327c-1.182,2.157-3.339,2.806-5.548,2.975-2.7.221-5.431.143-8.133.143q-8.282.02-16.552.013Zm-8.964-13.447V145.6c1.442,0,2.884-.013,4.326,0l12.212.078c1.9.013,2.43-.663,1.936-2.52-.143-.572-.416-1.117-.546-1.689a17.679,17.679,0,0,0-7.834-10.822c-2.066-1.377-4.443-1.767-6.847-2.339-3-.728-5.781-.078-8.432.559a15.238,15.238,0,0,0-9.926,7.756,53.574,53.574,0,0,0-2.975,7.185c-.455,1.247.312,1.949,1.819,1.936,5.418-.013,10.848,0,16.266,0" transform="translate(-15.903 -14.041)"/>
      <path id="_Path_2" data-name="&lt;Path&gt;" class="cls-1" d="M103.206,82.244a7.6,7.6,0,0,1,6.067,2.338,85.251,85.251,0,0,1,16.045,21.164,33.76,33.76,0,0,1,1.637,4.274,3.156,3.156,0,0,1-.312,3.157,57.918,57.918,0,0,1-4.08,4.82,31.728,31.728,0,0,1-3.586,2.819c-3.118,2.378-3.872,4.82-3.04,8.64,1.39,6.509,4.911,11.836,9.12,16.747a51.385,51.385,0,0,0,11.316,10.173,62.864,62.864,0,0,0,11.485,5.847c3.326,1.26,6.73.766,9.016-2.625.805-1.2,1.845-2.222,2.65-3.4,3.118-4.56,8.25-5.717,13.382-2.819,7.419,4.17,14.07,9.393,20.579,14.811,2.611,2.157,3.235,4.976,2.482,8.25-.883,3.82-3.521,6.509-5.82,9.393a28.733,28.733,0,0,1-7.834,6.808,12.518,12.518,0,0,1-7.457,2.014,15.46,15.46,0,0,1-4.846-1.273c-9.51-4.17-18.929-8.575-27.621-14.278a166.048,166.048,0,0,1-14.538-11.056A118.2,118.2,0,0,1,116.9,157.819c-4.04-4.326-7.73-8.978-11.472-13.577A108.611,108.611,0,0,1,94.19,127.053c-2.326-4.287-4.352-8.731-6.392-13.161-1.26-2.754-2.274-5.613-3.417-8.419-1.741-4.326-.728-10.017,2.78-13.109,3.417-3.014,7.081-5.768,10.744-8.5a7.066,7.066,0,0,1,5.3-1.624" transform="translate(-15.903 -14.041)"/>
      <path id="_Path_3" data-name="&lt;Path&gt;" class="cls-1" d="M547.487,118.189c1.065-.909,1.858-1.533,2.6-2.222a20.52,20.52,0,0,1,15.266-5.535,11.926,11.926,0,0,1,10.9,8.77,8.659,8.659,0,0,1-3.066,9.562,38.176,38.176,0,0,1-11.121,5.911c-3.56,1.234-7.172,2.4-10.212,4.833a9.907,9.907,0,0,0-3.924,8.081c-.026,10.264.026,20.527-.039,30.778a28.992,28.992,0,0,1-1.988,10.9c-2.2,5.366-7.626,7.146-12.784,6.2-4.586-.857-7.12-3.6-8.315-8.107a30.436,30.436,0,0,1-.9-7.769c-.039-17.8-.026-35.611-.052-53.423a26.813,26.813,0,0,1,1.286-8.718c1.442-4.275,4.677-6.262,8.965-6.717a12.315,12.315,0,0,1,11.524,5.054c.572.715,1.117,1.442,1.858,2.4" transform="translate(-15.903 -14.041)"/>
      <path id="_Path_4" data-name="&lt;Path&gt;" class="cls-1" d="M315.262,155.537c0-8.991-.1-17.981.065-26.959a20.51,20.51,0,0,1,1.559-7.081c1.754-4.365,6.47-6.054,11.5-5.4,4.911.637,8.328,4.326,8.731,9.705.312,4.378.455,8.783.481,13.187.052,13.9.078,27.8-.026,41.7-.026,3.092-.143,6.236-1.533,9.172a9.568,9.568,0,0,1-9,5.846c-3.872.156-7.289-.845-9.38-4.3A16.14,16.14,0,0,1,315.275,183c-.026-9.159-.013-18.306-.013-27.465" transform="translate(-15.903 -14.041)"/>
      <path id="_Path_5" data-name="&lt;Path&gt;" class="cls-1" d="M339.162,95.02c1.026,6.795-5.716,12.368-12.044,12.278-8.5-.117-12.914-6.015-12.784-12.576.143-7.315,5.236-12.239,12.875-12.472,5.95-.195,13.07,5.522,11.953,12.771" transform="translate(-15.903 -14.041)"/>
      <path id="_Path_6" data-name="&lt;Path&gt;" class="cls-1" d="M145.46,81a63.536,63.536,0,0,1,12.173,2.04,48.288,48.288,0,0,1,20.722,11.615,42.836,42.836,0,0,1,10.42,13.538c1.585,3.4,2.793,6.99,4.066,10.537,2.027,5.652,1.936,11.628,2.443,17.5a2.718,2.718,0,0,1-2.6,2.858A2.358,2.358,0,0,1,190,136.748a18.261,18.261,0,0,1-.234-2.78,76.271,76.271,0,0,0-1.546-11.758c-1.1-6.626-4.2-12.316-8.029-17.552a43.581,43.581,0,0,0-16.669-13.72A58.915,58.915,0,0,0,148.6,86.326a57.009,57.009,0,0,0-6.847-.338c-1.676-.078-2.391-.623-2.624-1.858-.39-2.053.39-3.04,2.507-3.118,1.273-.052,2.547-.013,3.82-.013" transform="translate(-15.903 -14.041)"/>
      <path id="_Path_7" data-name="&lt;Path&gt;" class="cls-1" d="M181.34,127.787v3.56c.013.961-.013,1.884-1.182,2.235-1.208.364-2.469.442-3.261-.637a4.883,4.883,0,0,1-.987-2.767,30.957,30.957,0,0,0-1.208-10,28.663,28.663,0,0,0-5.444-9.874c-3.222-3.911-7.457-6.353-11.862-8.484a26.283,26.283,0,0,0-6.08-1.676c-1.793-.39-3.651-.559-5.47-.884-1.585-.286-2.7-1.507-2.533-2.65a2.884,2.884,0,0,1,3.131-2.326c3.235.481,6.457,1.143,9.679,1.78a26.449,26.449,0,0,1,8.406,3.209,33.7,33.7,0,0,1,12.953,13.551,48.3,48.3,0,0,1,3.677,10.16c.416,1.494.078,3.2.078,4.807h.1" transform="translate(-15.903 -14.041)"/>
      <path id="_Path_8" data-name="&lt;Path&gt;" class="cls-1" d="M168.14,125.823c-.013,1.208.052,2.339-1.273,3.079-1.728.948-3.625.234-3.664-1.767a15.792,15.792,0,0,0-1.273-5.652c-1.429-3.573-3.56-6.5-7.678-7.3-1.4-.273-2.767-.714-4.17-.9a2.678,2.678,0,0,1-2.637-2.728,2.9,2.9,0,0,1,2.78-2.469,11.14,11.14,0,0,1,2.274.221c5.132,1.1,9.952,2.741,12.8,7.691a25.4,25.4,0,0,1,2.845,9.822" transform="translate(-15.903 -14.041)"/>
    </g>
  </g>
</svg>
